<?xml version="1.0" encoding="utf-8"?>
<!-- Generator: Adobe Illustrator 16.0.0, SVG Export Plug-In . SVG Version: 6.00 Build 0)  -->
<!DOCTYPE svg PUBLIC "-//W3C//DTD SVG 1.1//EN" "http://www.w3.org/Graphics/SVG/1.1/DTD/svg11.dtd">
<svg version="1.1" id="imgView" xmlns="http://www.w3.org/2000/svg" xmlns:xlink="http://www.w3.org/1999/xlink" x="0px" y="0px"
	 width="256px" height="256px" viewBox="0 0 256 256" enable-background="new 0 0 256 256" xml:space="preserve">
<g>
	<g id="Layer_5_49_">
		<g>
			<path d="M245.477,7.564H10.523C4.735,7.564,0,12.301,0,18.089v75.398v36.238v69.41c0,5.789,4.735,10.524,10.523,10.524h85.775
				c0,0,3.071-0.185,3.071,2.819c0,3.502,0,11.66,0,15.762c0,1.492-0.112,2.447-1.869,2.447c-5.587,0-22.348,0-22.348,0
				c-4.901,0-8.875,3.973-8.875,8.874s3.974,8.874,8.875,8.874h105.694c4.9,0,8.875-3.973,8.875-8.874s-3.975-8.874-8.875-8.874
				c0,0-16.836,0-22.55,0c-1.294,0-1.667-0.787-1.667-1.691c0-3.688,0-13.178,0-17.025c0-2.357,2.205-2.312,2.205-2.312h86.64
				c5.788,0,10.524-4.735,10.524-10.524V18.089C256.001,12.301,251.265,7.564,245.477,7.564z M138.882,212.525
				c0,3.729,0,12.723,0,16.254c0,0.848-0.429,1.847-1.724,1.847c-4.656,0-13.331,0-18.35,0c-1.618,0-1.69-0.853-1.69-2.2
				c0-3.988,0-12.319,0-15.762c0-2.311,2.753-2.395,2.753-2.395h16.687C136.558,210.27,138.882,210.122,138.882,212.525z
				 M128,198.021c-5.72,0-10.356-4.637-10.356-10.355c0-5.72,4.636-10.355,10.356-10.355c5.718,0,10.355,4.636,10.355,10.355
				C138.355,193.385,133.719,198.021,128,198.021z M240.51,158.06c0,5.788-4.736,10.524-10.523,10.524H26.015
				c-5.789,0-10.523-4.736-10.523-10.524V35.485c0-5.789,4.735-10.524,10.523-10.524h203.972c5.787,0,10.523,4.736,10.523,10.524
				V158.06z"/>
		</g>
	</g>
</g>
</svg>
